<svg width="104" height="89" viewBox="0 0 104 89" fill="none" xmlns="http://www.w3.org/2000/svg">
<path fill-rule="evenodd" clip-rule="evenodd" d="M45.817 8C43.7092 8 41.6876 8.83735 40.1972 10.3278C38.7067 11.8183 37.8693 13.8399 37.8693 15.9477V23.8955H65.7125V15.9477C65.7125 13.8399 64.8751 11.8183 63.3847 10.3278C61.8942 8.83735 59.8726 8 57.7648 8H45.817ZM29.8693 15.9477V23.8955H27.8954C20.4971 23.8955 13.4018 26.8344 8.17039 32.0658C2.93897 37.2972 0 44.3926 0 51.7909V111.53C0 115.759 1.6802 119.815 4.67098 122.806C7.66176 125.797 11.7181 127.477 15.9477 127.477H87.6341C91.8637 127.477 95.92 125.797 98.9108 122.806C101.902 119.815 103.582 115.759 103.582 111.53V51.7909C103.582 44.3926 100.643 37.2972 95.4114 32.0658C90.18 26.8344 83.0847 23.8955 75.6863 23.8955H73.7125V15.9477C73.7125 11.7181 72.0323 7.66176 69.0415 4.67098C66.0507 1.6802 61.9944 0 57.7648 0H45.817C41.5874 0 37.5311 1.6802 34.5403 4.67098C31.5495 7.66176 29.8693 11.7181 29.8693 15.9477ZM33.8693 31.8954H69.7125L75.6863 31.8955C80.9629 31.8955 86.0234 33.9916 89.7545 37.7227C93.4857 41.4538 95.5818 46.5143 95.5818 51.7909V111.53C95.5818 113.637 94.7444 115.659 93.254 117.149C91.7635 118.64 89.7419 119.477 87.6341 119.477H79.1662C79.4973 118.895 79.6863 118.221 79.6863 117.503V99.5818V87.6341C79.6863 83.4045 78.0061 79.3481 75.0154 76.3573C72.0246 73.3666 67.9682 71.6864 63.7386 71.6864H39.8432C35.6136 71.6864 31.5572 73.3666 28.5664 76.3573C25.5757 79.3481 23.8954 83.4045 23.8954 87.6341V99.5818V117.503C23.8954 118.221 24.0845 118.895 24.4156 119.477H15.9477C13.8399 119.477 11.8183 118.64 10.3278 117.149C8.83735 115.659 8 113.637 8 111.53V51.7909C8 46.5143 10.0961 41.4538 13.8272 37.7227C17.5584 33.9916 22.6188 31.8955 27.8954 31.8955L33.8693 31.8954ZM31.8954 103.582V117.503C31.8954 118.221 31.7064 118.895 31.3753 119.477H72.2065C71.8754 118.895 71.6863 118.221 71.6863 117.503V103.582H31.8954ZM71.6863 95.5818H31.8954V87.6341C31.8954 85.5262 32.7328 83.5047 34.2233 82.0142C35.7138 80.5237 37.7353 79.6864 39.8432 79.6864H63.7386C65.8465 79.6864 67.868 80.5237 69.3585 82.0142C70.849 83.5047 71.6863 85.5262 71.6863 87.6341V95.5818ZM23.8954 51.7909C23.8954 49.5818 25.6863 47.7909 27.8954 47.7909H75.6863C77.8955 47.7909 79.6863 49.5818 79.6863 51.7909C79.6863 54 77.8955 55.7909 75.6863 55.7909H27.8954C25.6863 55.7909 23.8954 54 23.8954 51.7909Z" fill="url(#paint0_linear_127_3754)" fill-opacity="0.22"/>
<defs>
<linearGradient id="paint0_linear_127_3754" x1="51.7909" y1="0" x2="51.7909" y2="127.477" gradientUnits="userSpaceOnUse">
<stop offset="0.481893" stop-color="white"/>
<stop offset="0.91226" stop-opacity="0"/>
</linearGradient>
</defs>
</svg>
