<svg width="135" height="96" viewBox="0 0 135 96" fill="none" xmlns="http://www.w3.org/2000/svg">
<path d="M124.316 41.125V31C124.316 27.4196 122.907 23.9858 120.4 21.4541C117.893 18.9223 114.493 17.5 110.947 17.5H17.3684C13.8229 17.5 10.4226 18.9223 7.91552 21.4541C5.40845 23.9858 4 27.4196 4 31V125.5C4 129.08 5.40845 132.514 7.91552 135.046C10.4226 137.578 13.8229 139 17.3684 139H40.7632M90.8947 4V31M37.4211 4V31M4 58H37.4211M100.921 108.625L90.8947 100.188V85M131 98.5C131 109.241 126.775 119.543 119.253 127.138C111.732 134.733 101.531 139 90.8947 139C80.2582 139 70.0572 134.733 62.536 127.138C55.0148 119.543 50.7895 109.241 50.7895 98.5C50.7895 87.7587 55.0148 77.4574 62.536 69.8622C70.0572 62.267 80.2582 58 90.8947 58C101.531 58 111.732 62.267 119.253 69.8622C126.775 77.4574 131 87.7587 131 98.5Z" stroke="url(#paint0_linear_127_3573)" stroke-opacity="0.22" stroke-width="8" stroke-linecap="round" stroke-linejoin="round"/>
<defs>
<linearGradient id="paint0_linear_127_3573" x1="67.5" y1="4" x2="67.5" y2="139" gradientUnits="userSpaceOnUse">
<stop stop-color="white"/>
<stop offset="1" stop-color="white" stop-opacity="0"/>
</linearGradient>
</defs>
</svg>
